<svg width="200" height="200" viewBox="0 0 200 200" fill="none" xmlns="http://www.w3.org/2000/svg">
<path d="M137.174 121.481C126.456 138.248 117.161 159.541 98.2881 162.011C78.8256 164.558 58.8995 151.27 50.2247 132.861C42.9887 117.506 58.657 101.959 61.9923 84.9879C65.0112 69.6257 56.2462 50.027 68.3186 40.7896C80.7093 31.3085 96.5698 42.7749 110.988 47.4973C128.035 53.0804 150.917 52.2196 157.172 69.8905C163.579 87.9926 147.548 105.251 137.174 121.481Z" fill="#0136F4" fill-opacity="0.79"/>
<path d="M105.304 140.067C84.9012 142.134 61.7525 148.246 47.6835 134.58C33.1747 120.486 31.1628 95.8863 40.4856 77.1011C48.262 61.4317 70.8454 64.1446 86.6902 55.9818C101.033 48.5931 111.259 28.9739 126.445 32.8175C142.031 36.7625 142.914 56.9115 148.323 71.5814C154.718 88.925 170.052 106.861 159.777 123.218C149.251 139.975 125.053 138.065 105.304 140.067Z" fill="#44F5C0" fill-opacity="0.68"/>
<path d="M18 37C27.3888 37 35 29.3889 35 20C35 10.6112 27.3888 3 18 3C8.61116 3 1 10.6112 1 20C1 29.3889 8.61116 37 18 37Z" fill="#4184F3"/>
<path d="M104.307 123.182C104.853 123.182 105.308 122.727 105.308 122.182V94.0852C105.308 93.5396 104.853 93.085 104.307 93.085C103.761 93.085 103.306 93.5396 103.306 94.0852V122.227C103.306 122.773 103.761 123.182 104.307 123.182Z" fill="#E5BB45"/>
<path d="M79.3971 88.8685L122.283 108.767L124.255 105.995L88.9009 75.3351L79.3971 88.8685Z" fill="#F9EDBD"/>
<path d="M78.3717 89.4847L81.015 91.2288C81.4065 91.4872 81.9462 91.3938 82.2047 91.0026L91.6983 76.6759C91.9568 76.2846 91.8633 75.7453 91.4717 75.4869L88.8285 73.7429C88.4369 73.4845 87.8973 73.5778 87.6388 73.9691L78.1451 88.2958C77.8866 88.6871 77.9802 89.2263 78.3717 89.4847Z" fill="#F9C95F"/>
<path d="M114.065 105.929L116.777 107.101C117.181 107.255 117.617 107.149 117.823 106.752L120.427 102.683C120.627 102.337 120.573 101.908 120.292 101.611L118.207 99.617C117.874 99.3128 117.347 99.3021 116.991 99.6288C116.932 99.6746 116.926 99.7266 116.868 99.7724L113.636 104.663C113.378 105.054 113.471 105.594 113.863 105.852C113.967 105.865 114.019 105.871 114.065 105.929Z" fill="#F9C95F"/>
<path d="M102.82 86.9904L96.3054 96.7656C96.0532 97.1049 95.6114 97.2628 95.2657 97.0628L90.8579 95.0533C90.408 94.8406 90.256 94.3471 90.4166 93.8913C90.4229 93.8392 90.4813 93.7935 90.4813 93.7935L97.8297 82.7987C98.0883 82.4075 98.6279 82.3141 99.0195 82.5725C99.0716 82.5788 99.0653 82.6308 99.1174 82.6371L102.691 85.8661C102.972 86.164 103.02 86.645 102.82 86.9904Z" fill="#F9C95F"/>
<path d="M122.153 109.732C122.362 109.757 122.53 109.672 122.66 109.476L124.824 105.988C124.959 105.74 124.893 105.416 124.645 105.28C124.397 105.145 124.072 105.211 123.936 105.459L121.772 108.947C121.637 109.195 121.703 109.519 121.951 109.655C121.997 109.713 122.049 109.719 122.153 109.732Z" fill="#F9C95F"/>
<path d="M102.987 123.136H103.169C103.715 123.136 104.17 122.681 104.17 122.136V94.1301C104.17 93.5845 103.715 93.1299 103.169 93.1299H102.987C102.441 93.1299 101.986 93.5845 101.986 94.1301V122.136C101.986 122.681 102.441 123.136 102.987 123.136Z" fill="#FFD469"/>
<path d="M103.033 95.1296C102.631 95.1296 102.305 94.804 102.305 94.4022C102.305 94.0005 102.631 93.6748 103.033 93.6748C103.435 93.6748 103.761 94.0005 103.761 94.4022C103.761 94.804 103.435 95.1296 103.033 95.1296Z" fill="#E5BB45"/>
<path d="M99.3473 123.363H108.538C108.947 123.363 109.266 123.045 109.266 122.636V120.317C109.266 119.908 108.947 119.59 108.538 119.59H99.3473C98.9379 119.59 98.6194 119.908 98.6194 120.317V122.636C98.6194 123 98.9379 123.363 99.3473 123.363Z" fill="#F9EDBD"/>
<path d="M79 127H126.272C126.681 127 127 126.682 127 126.273V123.954C127 123.545 126.681 123.227 126.272 123.227H79C78.5905 123.227 78.272 123.545 78.272 123.954V126.273C78.272 126.682 78.5905 127 79 127Z" fill="#FFCB48"/>
<path d="M31.6213 29.1388C32.8462 25.4348 30.8387 21.4399 27.1374 20.2159C23.4362 18.9919 19.4427 21.0024 18.2178 24.7064C16.993 28.4104 19.0005 32.4053 22.7017 33.6293C26.403 34.8533 30.3964 32.8428 31.6213 29.1388Z" fill="#FFEA79"/>
<path d="M79.0123 21.4262C79.719 19.2893 78.5608 16.9845 76.4254 16.2784C74.2901 15.5722 71.9862 16.7321 71.2795 18.869C70.5729 21.006 71.731 23.3107 73.8664 24.0169C76.0017 24.723 78.3056 23.5631 79.0123 21.4262Z" fill="#EDCA35"/>
<path d="M17.0123 72.4731C17.719 70.3362 16.5608 68.0314 14.4254 67.3253C12.2901 66.6191 9.98619 67.779 9.27952 69.9159C8.57286 72.0528 9.73104 74.3576 11.8664 75.0637C14.0017 75.7699 16.3056 74.61 17.0123 72.4731Z" fill="#F7E585"/>
</svg>
