<svg width="200" height="200" viewBox="0 0 200 200" fill="none" xmlns="http://www.w3.org/2000/svg">
<path d="M137.174 121.481C126.456 138.249 117.16 159.541 98.288 162.011C78.8255 164.559 58.8994 151.27 50.2246 132.862C42.9886 117.506 58.657 101.96 61.9922 84.9884C65.0112 69.6262 56.2462 50.0274 68.3185 40.79C80.7092 31.3089 96.5697 42.7753 110.988 47.4977C128.035 53.0808 150.917 52.2201 157.171 69.891C163.578 87.993 147.548 105.252 137.174 121.481Z" fill="#0136F4" fill-opacity="0.79"/>
<path d="M105.304 140.067C84.9009 142.134 61.7523 148.246 47.6833 134.58C33.1745 120.486 31.1626 95.8863 40.4853 77.1011C48.2618 61.4317 70.8451 64.1446 86.6899 55.9818C101.032 48.5931 111.259 28.9739 126.445 32.8175C142.031 36.7625 142.914 56.9115 148.323 71.5814C154.718 88.925 170.052 106.861 159.777 123.218C149.251 139.975 125.052 138.065 105.304 140.067Z" fill="#44F5C0" fill-opacity="0.68"/>
<circle cx="44.2652" cy="56.0729" r="2.03664" fill="#7101F4"/>
<circle cx="174.01" cy="124.516" r="4.27022" fill="#F55E44"/>
<path d="M176.573 75.0536L180.101 80.1452H173.046L176.573 75.0536Z" fill="#01F49D"/>
<path d="M124.374 13.1654L127.768 18.5965H120.979L124.374 13.1654Z" fill="#F55E44"/>
<path d="M39.8667 155.71L48.1047 154.908L44.6804 162.444L39.8667 155.71Z" fill="#F4EA01"/>
<path d="M14.3944 98.8423L15.1565 101.188H17.6227L15.6275 102.637L16.3896 104.983L14.3944 103.533L12.3992 104.983L13.1613 102.637L11.1661 101.188H13.6323L14.3944 98.8423Z" fill="#F55E44"/>
<path d="M121.534 82H94.851C91.0673 82 88 85.0673 88 88.851V115.534C88 119.317 91.0673 122.385 94.851 122.385H121.534C125.317 122.385 128.385 119.317 128.385 115.534V88.851C128.385 85.0673 125.317 82 121.534 82Z" stroke="white" stroke-width="2" stroke-linejoin="round"/>
<path d="M118.325 81.6154L118.385 78.7308C118.38 76.9472 117.669 75.2382 116.408 73.977C115.146 72.7158 113.437 72.0051 111.654 72H85.6923C83.654 72.006 81.701 72.8184 80.2597 74.2597C78.8184 75.701 78.006 77.654 78 79.6923V105.654C78.0051 107.437 78.7158 109.146 79.977 110.408C81.2382 111.669 82.9472 112.38 84.7308 112.385H87.6154" stroke="white" stroke-width="2" stroke-linecap="round" stroke-linejoin="round"/>
</svg>
