<svg xmlns="http://www.w3.org/2000/svg" width="100%">
  <symbol id="zd-overflow-vertical-fill" viewBox="0 0 16 16"><path fill="currentColor" d="M8 12a2 2 0 110 4 2 2 0 010-4zm0-6a2 2 0 110 4 2 2 0 010-4zm0-6a2 2 0 110 4 2 2 0 010-4z"/></symbol><symbol viewBox="0 0 16 16"><circle cx="8" cy="8" r="8" fill="currentColor"/></symbol>

  <symbol id="zd-arrow-right" viewBox="0 0 30 30" fill="none">
    <rect width="30" height="30" />
    <path d="M4 15.5H27" stroke="currentColor" stroke-width="2" stroke-linecap="round" stroke-linejoin="round"/>
    <path d="M15.5 27L27 15.5L15.5 4" stroke="currentColor" stroke-width="2" stroke-linecap="round" stroke-linejoin="round"/>
  </symbol>

  <symbol id="zd-search" viewBox="0 0 30 30" fill="none">
    <path d="M12.8182 3C10.8764 3 8.97811 3.57583 7.36351 4.65467C5.74892 5.73351 4.49049 7.2669 3.74737 9.06095C3.00425 10.855 2.80982 12.8291 3.18866 14.7337C3.5675 16.6382 4.50259 18.3876 5.87569 19.7607C7.2488 21.1339 8.99824 22.0689 10.9028 22.4478C12.8073 22.8266 14.7815 22.6322 16.5755 21.8891C18.3695 21.146 19.9029 19.8875 20.9818 18.2729C22.0606 16.6583 22.6364 14.7601 22.6364 12.8182C22.6363 10.2143 21.6018 7.71711 19.7606 5.87587C17.9193 4.03464 15.4221 3.00017 12.8182 3V3Z" stroke="currentColor" stroke-width="2" stroke-miterlimit="10"/>
    <path d="M20.1426 20.1432L26.9995 27.0001" stroke="currentColor" stroke-width="2" stroke-miterlimit="10" stroke-linecap="round"/>
  </symbol>

  <symbol id="zd-close" viewBox="0 0 30 30" fill="none">
    <path d="M15.5 3C13.2255 3 11.0021 3.67446 9.11095 4.9381C7.21978 6.20174 5.7458 7.99779 4.87539 10.0991C4.00498 12.2005 3.77724 14.5128 4.22097 16.7435C4.6647 18.9743 5.75997 21.0234 7.36828 22.6317C8.97658 24.24 11.0257 25.3353 13.2565 25.779C15.4872 26.2228 17.7995 25.995 19.9009 25.1246C22.0022 24.2542 23.7983 22.7802 25.0619 20.8891C26.3255 18.9979 27 16.7745 27 14.5C27 11.45 25.7884 8.52494 23.6317 6.36827C21.4751 4.2116 18.55 3 15.5 3Z" stroke="currentColor" stroke-width="2" stroke-miterlimit="10"/>
    <path d="M20 10L11 19" stroke="currentColor" stroke-width="2" stroke-linecap="round" stroke-linejoin="round"/>
    <path d="M11 10L20 19" stroke="currentColor" stroke-width="2" stroke-linecap="round" stroke-linejoin="round"/>
  </symbol>

  <symbol id="zd-cog" viewBox="0 0 30 30" fill="none">
    <path d="M14.75 10.3152C13.8493 10.3152 12.9688 10.5753 12.22 11.0626C11.4711 11.5499 10.8874 12.2425 10.5427 13.0529C10.198 13.8632 10.1078 14.7549 10.2835 15.6152C10.4593 16.4754 10.893 17.2656 11.5299 17.8859C12.1667 18.5061 12.9782 18.9285 13.8616 19.0996C14.7449 19.2707 15.6606 19.1829 16.4927 18.8472C17.3249 18.5115 18.0361 17.9431 18.5365 17.2138C19.0369 16.4845 19.304 15.6271 19.304 14.75C19.3004 13.5749 18.8194 12.4489 17.9662 11.618C17.1129 10.7871 15.9567 10.3187 14.75 10.3152ZM24.582 14.75C24.5796 15.1644 24.5485 15.5781 24.4887 15.9884L27.2603 18.1016C27.381 18.1987 27.4624 18.3344 27.4898 18.4845C27.5172 18.6346 27.4889 18.7893 27.41 18.9209L24.7881 23.3291C24.7084 23.4596 24.584 23.5585 24.4367 23.6085C24.2895 23.6585 24.1289 23.6563 23.9832 23.6024L20.7242 22.3274C20.0456 22.8363 19.303 23.2586 18.5144 23.5841L18.0271 26.9534C17.9999 27.1043 17.9196 27.2414 17.8001 27.341C17.6806 27.4407 17.5293 27.4969 17.3719 27.5H12.1281C11.9736 27.4971 11.8247 27.4432 11.7057 27.3473C11.5867 27.2513 11.5046 27.1189 11.4729 26.9717L10.9856 23.6024C10.1948 23.2807 9.45166 22.8577 8.77577 22.3446L5.51683 23.6196C5.37116 23.6736 5.21059 23.6758 5.06338 23.6259C4.91616 23.5761 4.79171 23.4772 4.71192 23.3468L2.08997 18.9392C2.01105 18.8075 1.98278 18.6528 2.0102 18.5027C2.03763 18.3527 2.11897 18.2169 2.23969 18.1199L5.01134 16.0067C4.95223 15.5902 4.92104 15.1704 4.91799 14.75C4.92036 14.3356 4.95155 13.9219 5.01134 13.5116L2.23969 11.3984C2.11897 11.3013 2.03763 11.1656 2.0102 11.0155C1.98278 10.8654 2.01105 10.7107 2.08997 10.5791L4.71192 6.17091C4.79163 6.04042 4.91603 5.94147 5.06326 5.89148C5.21048 5.8415 5.37109 5.84367 5.51683 5.89762L8.77577 7.17262C9.45437 6.66373 10.197 6.24141 10.9856 5.91591L11.4729 2.54659C11.5001 2.39567 11.5804 2.25865 11.6999 2.15896C11.8194 2.05926 11.9707 2.00308 12.1281 2H17.3719C17.5264 2.00293 17.6753 2.05676 17.7943 2.15271C17.9133 2.24866 17.9954 2.38106 18.0271 2.52829L18.5144 5.89762C19.3062 6.21912 20.0503 6.64213 20.7271 7.15543L23.9832 5.88043C24.1288 5.82644 24.2894 5.82418 24.4366 5.87406C24.5838 5.92395 24.7083 6.02278 24.7881 6.15317L27.41 10.5613C27.4889 10.693 27.5172 10.8477 27.4898 10.9978C27.4624 11.1479 27.381 11.2836 27.2603 11.3807L24.4887 13.4938C24.5477 13.9101 24.5789 14.3298 24.582 14.75Z" fill="currentColor"/>
  </symbol>

  <symbol id="zd-arrow-up-down" fill="none" viewBox="0 0 24 24" stroke-width="1.5" stroke="currentColor">
    <path stroke-linecap="round" stroke-linejoin="round" d="M3 7.5L7.5 3m0 0L12 7.5M7.5 3v13.5m13.5 0L16.5 21m0 0L12 16.5m4.5 4.5V7.5" />
  </symbol>

  <symbol id="zd-download" fill="none" viewBox="0 0 24 24" stroke-width="1.5" stroke="currentColor">
    <path stroke-linecap="round" stroke-linejoin="round" d="M3 16.5v2.25A2.25 2.25 0 005.25 21h13.5A2.25 2.25 0 0021 18.75V16.5M16.5 12L12 16.5m0 0L7.5 12m4.5 4.5V3" />
  </symbol>
</svg>
