<svg xmlns="http://www.w3.org/2000/svg" width="512" height="512" viewBox="0 0 512 512" fill="none"><g clip-path="url(#clip0_1512_285)"><rect width="512" height="512" fill="#1E75EB"/><g><path d="M-6.5582 -4.58486L276.035 -1.95042L-62.4802 272.432L-6.5582 -4.58486Z" fill="#0054C6"/></g><path d="M74.3697 60.1602V91.1182H49.4902L74.3697 60.1602Z" fill="white"/><path d="M74.3697 48.9922C74.3697 52.4039 73.0591 55.6759 70.7262 58.0883C68.3933 60.5007 65.2292 61.856 61.93 61.856C58.6308 61.856 55.4667 60.5007 53.1338 58.0883C50.8008 55.6759 49.4902 52.4039 49.4902 48.9922H74.3697V48.9922Z" fill="white"/><path d="M78.469 91.1177C78.469 87.706 79.7871 84.4341 82.1332 82.0216C84.4794 79.6092 87.6615 78.2539 90.9794 78.2539C94.2974 78.2539 97.4795 79.6092 99.8256 82.0216C102.172 84.4341 103.49 87.706 103.49 91.1177H78.469Z" fill="white"/><path d="M78.469 79.9502V48.9922H103.49L78.469 79.9502Z" fill="white"/></g><line x1="127.521" y1="347.218" x2="391.218" y2="154.479" stroke="white" stroke-width="14" stroke-linecap="round"/><line x1="354.325" y1="323.096" x2="293.096" y2="283.675" stroke="white" stroke-width="14" stroke-linecap="round"/><line x1="263" y1="393" x2="263" y2="300" stroke="white" stroke-width="14" stroke-linecap="round"/><line x1="246.383" y1="220.347" x2="189.708" y2="185.904" stroke="white" stroke-width="14" stroke-linecap="round"/><circle cx="256" cy="256" r="37.5" fill="#1E75EB" stroke="white" stroke-width="27"/><circle cx="417" cy="137" r="30" fill="#1E75EB" stroke="white" stroke-width="12"/><circle cx="376" cy="333" r="20" fill="#1E75EB" stroke="white" stroke-width="10"/><circle cx="169" cy="172" r="20" fill="#1E75EB" stroke="white" stroke-width="10"/><circle cx="262.5" cy="421.5" r="23.5" fill="#1E75EB" stroke="white" stroke-width="10"/><circle cx="110" cy="357" r="30" fill="#1E75EB" stroke="white" stroke-width="12"/><defs><filter id="filter0_d_1512_285" x="-87.4802" y="-29.585" width="388.515" height="327.018" filterUnits="userSpaceOnUse" color-interpolation-filters="sRGB"><feGaussianBlur stdDeviation="12.5"/></filter><clipPath id="clip0_1512_285"><rect width="512" height="512" fill="white"/></clipPath></defs></svg>